HIERARCHY
ROOT Hips
{
	OFFSET 0.000000 0.000000 0.000000
	CHANNELS 6 Xposition Yposition Zposition Zrotation Yrotation Xrotation 
	JOINT LHipJoint
	{
		OFFSET 0.000000 0.000000 0.000000
		CHANNELS 3 Zrotation Yrotation Xrotation
		JOINT LeftUpLeg
		{
			OFFSET 1.363060 -1.794630 0.839290
			CHANNELS 3 Zrotation Yrotation Xrotation
			JOINT LeftLeg
			{
				OFFSET 2.448110 -6.726130 0.000000
				CHANNELS 3 Zrotation Yrotation Xrotation
				JOINT LeftFoot
				{
					OFFSET 2.562200 -7.039590 0.000000
					CHANNELS 3 Zrotation Yrotation Xrotation
					JOINT LeftToeBase
					{
						OFFSET 0.157640 -0.433110 2.322550
						CHANNELS 3 Zrotation Yrotation Xrotation
						End Site
						{
							OFFSET 0.000000 0.000000 0.000000
						}
					}
				}
			}
		}
	}
	JOINT RHipJoint
	{
		OFFSET 0.000000 0.000000 0.000000
		CHANNELS 3 Zrotation Yrotation Xrotation
		JOINT RightUpLeg
		{
			OFFSET -1.305520 -1.794630 0.839290
			CHANNELS 3 Zrotation Yrotation Xrotation
			JOINT RightLeg
			{
				OFFSET -2.542530 -6.985550 0.000000
				CHANNELS 3 Zrotation Yrotation Xrotation
				JOINT RightFoot
				{
					OFFSET -2.568260 -7.056230 0.000000
					CHANNELS 3 Zrotation Yrotation Xrotation
					JOINT RightToeBase
					{
						OFFSET -0.164730 -0.452590 2.363150
						CHANNELS 3 Zrotation Yrotation Xrotation
						End Site
						{
							OFFSET 0.000000 0.000000 0.000000
						}
					}
				}
			}
		}
	}
	JOINT LowerBack
	{
		OFFSET 0.000000 0.000000 0.000000
		CHANNELS 3 Zrotation Yrotation Xrotation
		JOINT Spine
		{
			OFFSET 0.028270 2.035590 -0.193380
			CHANNELS 3 Zrotation Yrotation Xrotation
			JOINT Spine1
			{
				OFFSET 0.056720 2.048850 -0.042750
				CHANNELS 3 Zrotation Yrotation Xrotation
				JOINT Neck
				{
					OFFSET 0.000000 0.000000 0.000000
					CHANNELS 3 Zrotation Yrotation Xrotation
					JOINT Neck1
					{
						OFFSET -0.054170 1.746240 0.172020
						CHANNELS 3 Zrotation Yrotation Xrotation
						JOINT Head
						{
							OFFSET 0.104070 1.761360 -0.123970
							CHANNELS 3 Zrotation Yrotation Xrotation
							End Site
							{
								OFFSET 0.000000 0.000000 0.000000
							}
						}
					}
				}
				JOINT LeftShoulder
				{
					OFFSET 0.000000 0.000000 0.000000
					CHANNELS 3 Zrotation Yrotation Xrotation
					JOINT LeftArm
					{
						OFFSET 3.362410 1.200890 -0.311210
						CHANNELS 3 Zrotation Yrotation Xrotation
						JOINT LeftForeArm
						{
							OFFSET 4.983000 -0.000000 -0.000000
							CHANNELS 3 Zrotation Yrotation Xrotation
							JOINT LeftHand
							{
								OFFSET 3.483560 -0.000000 -0.000000
								CHANNELS 3 Zrotation Yrotation Xrotation
								JOINT LeftFingerBase
								{
									OFFSET 0.000000 0.000000 0.000000
									CHANNELS 3 Zrotation Yrotation Xrotation
									JOINT LeftHandIndex1
									{
										OFFSET 0.715260 -0.000000 -0.000000
										CHANNELS 3 Zrotation Yrotation Xrotation
										End Site
										{
											OFFSET 0.000000 0.000000 0.000000
										}
									}
								}
								JOINT LThumb
								{
									OFFSET 0.000000 0.000000 0.000000
									CHANNELS 3 Zrotation Yrotation Xrotation
									End Site
									{
										OFFSET 0.000000 0.000000 0.000000
									}
								}
							}
						}
					}
				}
				JOINT RightShoulder
				{
					OFFSET 0.000000 0.000000 0.000000
					CHANNELS 3 Zrotation Yrotation Xrotation
					JOINT RightArm
					{
						OFFSET -3.136600 1.374050 -0.404650
						CHANNELS 3 Zrotation Yrotation Xrotation
						JOINT RightForeArm
						{
							OFFSET -5.241900 -0.000000 -0.000000
							CHANNELS 3 Zrotation Yrotation Xrotation
							JOINT RightHand
							{
								OFFSET -3.444170 -0.000000 -0.000000
								CHANNELS 3 Zrotation Yrotation Xrotation
								JOINT RightFingerBase
								{
									OFFSET 0.000000 0.000000 0.000000
									CHANNELS 3 Zrotation Yrotation Xrotation
									JOINT RightHandIndex1
									{
										OFFSET -0.622530 -0.000000 -0.000000
										CHANNELS 3 Zrotation Yrotation Xrotation
										End Site
										{
											OFFSET 0.000000 0.000000 0.000000
										}
									}
								}
								JOINT RThumb
								{
									OFFSET 0.000000 0.000000 0.000000
									CHANNELS 3 Zrotation Yrotation Xrotation
									End Site
									{
										OFFSET 0.000000 0.000000 0.000000
									}
								}
							}
						}
					}
				}
			}
		}
	}
}
MOTION
Frames: 7
Frame Time: 0.008333
8.108768 17.253303 6.908163 -177.474350 -48.776288 -167.589164 1.534616 2.923574 0.183609 -10.347618 -4.513399 -34.910882 2.353791 10.552977 30.667569 -0.738076 5.776732 -5.646475 0.253000 -3.236200 -8.937200 -4.695364 -4.225771 -0.302476 13.536226 3.665532 -16.469908 -4.056648 -11.355876 37.611360 1.297932 -14.276786 -17.806620 -0.030500 1.127100 -3.098600 2.758453 -4.086130 1.426589 1.905309 -5.271125 -4.625430 -3.894876 -2.873525 0.043270 5.086345 8.943895 -14.185749 -2.862263 12.651774 17.451864 -2.315800 5.982800 8.455800 -6.816978 -12.896000 3.565468 -57.252449 -27.909046 21.332892 56.848303 -45.478262 -33.831505 0.089986 -3.109318 -77.251803 24.562082 43.930340 19.762900 -7.125000 0.000000 0.000000 -20.521900 76.252900 -15.185800 3.658019 14.203036 1.533048 79.108311 2.031447 52.354555 -118.073611 47.326126 -81.977266 1.990292 -3.068747 20.833959 -44.272097 -3.870768 0.796000 7.125000 0.000000 0.000000 -16.364100 -30.803200 -5.891200 
8.194802 17.232838 6.866113 -177.124834 -50.417249 -167.440251 1.552546 2.880980 0.150655 -9.660939 -5.399664 -35.988824 2.465877 10.738064 31.185769 -0.593786 5.064200 -5.342833 0.293500 -3.483500 -9.627800 -4.748301 -4.244541 -0.327802 14.175958 3.359265 -16.316325 -4.007168 -11.233046 37.333482 1.294328 -14.308794 -17.992734 -0.224000 3.046300 -8.407700 2.949283 -4.265513 1.103009 1.973286 -5.518376 -4.712015 -3.970544 -3.008384 0.010950 5.204285 8.835153 -14.343009 -2.763723 12.467077 17.252538 -2.310000 5.914300 8.392000 -6.907330 -12.910852 3.594867 -54.874787 -29.702623 19.183687 53.008498 -43.945813 -30.756774 0.211611 -3.383886 -77.982802 23.553189 44.756504 19.461500 -7.125000 0.000000 0.000000 -23.896600 76.722400 -17.965300 3.666141 14.187182 1.477859 79.839438 3.600309 54.678335 -116.200137 47.812415 -79.499176 1.952376 -3.202558 21.962210 -44.780106 -5.232712 2.082700 7.125000 0.000000 0.000000 -17.096100 -32.437900 -5.471700 
8.286538 17.212577 6.817446 -176.443984 -51.849010 -167.788165 1.578672 2.857590 0.135069 -8.794196 -6.095681 -36.816872 2.564095 10.916769 31.663400 -0.522440 4.703373 -5.048927 0.405200 -4.086500 -11.320000 -4.786680 -4.266662 -0.361084 15.140648 3.006181 -15.888043 -3.943216 -11.050183 36.937237 1.192661 -13.933402 -18.492345 -0.425500 4.186400 -11.601700 3.172049 -4.336005 1.093149 2.067003 -5.607176 -4.778270 -3.924226 -3.058890 -0.154520 5.116687 8.672311 -14.450844 -2.482082 12.200371 17.060249 -2.218000 5.810400 8.284600 -6.986708 -12.949203 3.595469 -52.554453 -31.324574 17.144237 49.588238 -42.353463 -28.106728 0.321242 -3.650434 -78.372210 22.563345 45.430915 19.109200 -7.125000 0.000000 0.000000 -27.071300 77.047700 -20.592000 3.675659 14.179722 1.445862 80.601893 5.090650 56.795121 -114.421821 48.290611 -77.086928 1.909248 -3.345182 22.705458 -45.127510 -6.244648 2.984600 7.125000 0.000000 0.000000 -17.618900 -33.560900 -5.151100 
8.394564 17.197814 6.742204 -175.529007 -52.323840 -168.463171 1.648987 2.858742 0.140321 -7.811864 -5.847292 -37.370351 2.602356 11.058214 31.915099 -0.508679 4.642087 -4.724585 0.582100 -4.885300 -13.581700 -4.812505 -4.261744 -0.380254 16.349163 3.216948 -15.393394 -3.893531 -10.869627 36.570619 1.030261 -13.265266 -19.018720 -0.532500 4.676000 -12.986800 2.874250 -4.056038 1.152534 2.184672 -5.227540 -4.726510 -3.411153 -2.864382 -0.075487 4.962505 8.408635 -14.691130 -2.275094 11.819898 16.730685 -2.164000 5.641800 8.146100 -7.065747 -12.979960 3.583465 -50.161341 -33.104078 14.969599 46.379843 -40.582072 -25.664789 0.375380 -3.936439 -78.540714 22.148281 45.516287 19.026400 -7.125000 0.000000 0.000000 -27.646300 77.085600 -21.062400 3.706817 14.135995 1.452202 81.256254 6.957554 58.685427 -112.732799 48.762600 -74.837053 1.875370 -3.462872 22.945346 -45.960225 -6.853921 3.490600 7.125000 0.000000 0.000000 -18.420500 -34.111000 -5.148100 
8.495463 17.175312 6.678977 -174.764189 -53.156254 -168.839866 1.712859 2.846281 0.120153 -6.839313 -6.164950 -38.307433 2.714926 11.293213 32.507066 -0.460034 4.412552 -4.497730 0.643400 -5.131400 -14.283600 -4.833638 -4.268680 -0.413676 17.434140 2.746156 -15.404253 -3.827453 -10.736744 36.256175 0.961982 -13.212527 -19.758178 -0.686900 5.298600 -14.762100 2.816743 -3.869775 0.920003 2.243083 -4.983059 -4.654576 -3.227853 -2.749117 0.158696 5.057914 8.170977 -15.180678 -2.217382 11.473090 16.527883 -2.172700 5.483000 8.137400 -7.162991 -13.012825 3.494204 -47.365996 -34.846831 12.653619 43.389721 -38.655780 -23.410628 0.394520 -4.251608 -78.832507 21.941118 44.885228 18.910300 -7.125000 0.000000 0.000000 -25.786200 76.628600 -19.371300 3.720587 14.088108 1.484734 82.060969 9.241864 60.296731 -111.107500 49.232272 -72.715823 1.887005 -3.545391 22.588697 -47.028844 -7.717385 4.339100 7.125000 0.000000 0.000000 -19.501700 -35.032900 -5.017900 
8.592391 17.145175 6.605059 -173.866154 -53.604730 -169.428194 1.810113 2.843803 0.119505 -5.833899 -5.837946 -39.224151 2.828716 11.550195 33.113782 -0.339498 3.822306 -4.265583 0.556500 -4.778700 -13.278300 -4.837285 -4.274943 -0.451284 18.552911 2.093641 -15.525949 -3.773020 -10.641559 36.047577 0.940990 -13.463450 -20.582201 -0.986200 6.320800 -17.718100 2.799321 -3.574841 0.767941 2.246310 -4.588747 -4.600446 -3.171619 -2.564578 0.245935 5.148397 7.974092 -15.529975 -1.942816 11.141670 16.460985 -2.102800 5.354400 8.137500 -7.259481 -13.075559 3.309481 -44.420535 -36.119961 10.250671 40.738039 -36.830551 -21.538226 0.443914 -4.556228 -78.982023 21.303298 44.445557 18.522900 -7.125000 0.000000 0.000000 -25.339500 76.198900 -18.805500 3.709219 14.067249 1.545659 83.354830 11.424631 61.461590 -109.322670 49.808142 -70.417030 1.936751 -3.624761 21.940829 -47.972591 -9.074710 5.792200 7.125000 0.000000 0.000000 -20.679900 -36.657500 -4.481700 
8.675879 17.110660 6.556697 -173.144573 -54.743370 -169.973406 1.866979 2.842220 0.123395 -5.048232 -6.085313 -40.289093 3.002692 11.838924 33.933644 -0.167298 2.922792 -3.961957 0.436700 -4.240400 -11.754100 -4.830774 -4.308421 -0.513662 19.427261 0.399812 -15.867554 -3.739853 -10.573812 35.920573 0.887372 -13.525123 -21.299370 -1.226000 7.022600 -19.782300 3.044882 -3.494502 0.873058 2.250878 -4.462216 -4.644408 -3.294376 -2.521797 -0.026197 5.234892 7.740632 -15.645095 -1.656799 10.739949 16.376972 -2.040700 5.195700 8.090800 -7.335387 -13.156865 3.058362 -41.718241 -37.036498 8.167024 38.370722 -35.132637 -19.914785 0.454675 -4.843065 -78.737798 20.648851 43.858980 18.069000 -7.125000 0.000000 0.000000 -24.643000 75.639000 -17.992600 3.697101 14.065170 1.648675 84.710151 13.496788 62.150775 -107.283774 50.529406 -67.893172 1.983672 -3.697710 21.031074 -49.024575 -10.356221 7.214600 7.125000 0.000000 0.000000 -21.956900 -38.163700 -3.924900 
